<svg width="200" height="180" viewBox="0 0 200 180" fill="none" xmlns="http://www.w3.org/2000/svg">
<path d="M103.629 0.845728C126.94 -2.21924 150.731 2.84644 168.993 19.3246C187.155 35.7126 198.65 62.3035 199.995 100.063L200 100.202V100.338C200 148.545 161.547 177.523 123.149 179.848C103.884 181.014 84.223 175.521 69.356 162.107C54.4245 148.634 45.1948 127.965 45.1948 100.338V100.156L45.2044 99.9768C45.7879 87.5642 52.0598 75.8316 60.5539 66.7098C69.0552 57.5807 80.4396 50.3461 92.4188 47.411C104.582 44.4309 117.945 45.8378 128.492 55.0356C138.725 63.9589 144.78 78.9184 145.996 99.8928L146.02 100.297L146 100.704C145.43 112.698 141.059 121.99 133.855 127.852C126.675 133.694 117.549 135.379 109.35 133.596C101.178 131.819 93.7976 126.569 90.0392 118.562C86.2388 110.466 86.5805 100.559 91.664 90.0787C93.6462 85.9921 98.7588 84.1975 103.084 86.07C107.409 87.9431 109.308 92.7761 107.326 96.8629C103.844 104.042 104.396 108.996 105.788 111.962C107.222 115.017 110.017 117.033 113.215 117.729C116.386 118.419 119.826 117.782 122.613 115.514C125.337 113.298 128.284 108.788 128.762 100.333C127.609 81.727 122.34 71.8241 116.808 67.0005C111.548 62.4131 104.66 61.2312 96.7429 63.1712C88.6416 65.1562 80.1142 70.3483 73.4878 77.4642C66.8993 84.5396 62.8372 92.8077 62.424 100.54C62.4684 124.555 70.4231 140.558 81.2564 150.333C92.1849 160.193 106.919 164.517 122.048 163.601C152.405 161.764 182.702 139.037 182.769 100.465C181.494 65.4621 170.937 43.5906 157.093 31.0988C143.33 18.6804 125.133 14.4565 106.004 16.9716C67.0067 22.099 27.0285 54.8569 21.3412 96.9538C20.7385 101.413 16.4243 104.566 11.7051 103.997C6.98589 103.427 3.64898 99.3509 4.25144 94.8915C11.024 44.7628 57.7448 6.87866 103.629 0.845728Z" fill="#769382"/>
<path d="M25.3417 135.684C25.3417 142.373 19.9191 147.796 13.23 147.796C6.5408 147.796 1.11816 142.373 1.11816 135.684C1.11816 128.995 6.5408 123.572 13.23 123.572C19.9191 123.572 25.3417 128.995 25.3417 135.684Z" fill="#769382"/>
<path d="M16.748 135.685L16.7247 135.21C16.5033 133.029 14.7684 131.294 12.5867 131.072L12.1124 131.047C9.55189 131.047 7.47447 133.124 7.47447 135.685L7.50017 136.159C7.73804 138.496 9.71226 140.32 12.1124 140.32V147.795L11.4886 147.781C5.08924 147.456 0.000331498 142.165 0 135.685C0 128.996 5.42327 123.572 12.1124 123.572C18.8013 123.573 24.2225 128.996 24.2225 135.685L24.2085 136.306C23.8847 142.706 18.5926 147.794 12.1124 147.795V140.32C14.5123 140.32 16.4869 138.496 16.7247 136.159L16.748 135.685Z" fill="#769382"/>
</svg>
