<svg width="200" height="39" viewBox="0 0 200 39" fill="none" xmlns="http://www.w3.org/2000/svg">
<path d="M20.5949 0.183166C25.3379 -0.480753 30.2053 0.615267 33.9456 4.20867C37.6619 7.77907 39.9777 13.5376 40.2485 21.6295L40.2498 21.6647V21.6993C40.2498 32.1621 32.4011 38.462 24.5658 38.9669C20.6323 39.2204 16.6037 38.0266 13.5532 35.0959C10.487 32.1502 8.61703 27.6529 8.61703 21.6993V21.6532L8.61905 21.6071C8.74006 18.8664 10.0378 16.2969 11.7728 14.3131C13.5096 12.3272 15.8425 10.7442 18.3148 10.0992C20.8313 9.44267 23.6329 9.74665 25.8476 11.8029C27.9865 13.7888 29.2114 17.078 29.4568 21.5854L29.4622 21.6891L29.4575 21.7928C29.3403 24.4162 28.4394 26.4945 26.9099 27.8195C25.3863 29.1393 23.4477 29.5195 21.7077 29.1166C19.9744 28.7151 18.4069 27.5292 17.6089 25.7193C16.8008 23.8863 16.8873 21.6717 17.9356 19.3707C18.4118 18.3257 19.6397 17.8665 20.6785 18.3454C21.7174 18.8244 22.1738 20.0604 21.6976 21.1056C21.034 22.5623 21.1622 23.5103 21.3918 24.0312C21.6316 24.5749 22.0979 24.9345 22.6366 25.0593C23.1688 25.1824 23.7413 25.0697 24.2095 24.6642C24.6638 24.2706 25.2221 23.4145 25.3169 21.6986C25.0867 17.7979 24.0512 15.8008 23.0408 14.8627C22.0962 13.9857 20.8501 13.739 19.3535 14.1294C17.8127 14.5314 16.1666 15.593 14.8801 17.0638C13.602 18.5253 12.8346 20.21 12.7556 21.7555C12.7671 26.7826 14.3301 30.0848 16.4112 32.0842C18.5158 34.1061 21.361 35.0014 24.3011 34.812C30.2054 34.4315 36.0957 29.7299 36.1106 21.7298C35.8565 14.3448 33.7664 9.79414 31.0876 7.22034C28.4278 4.66503 24.9034 3.78424 21.1648 4.30761C13.5104 5.37932 5.65714 12.239 4.54244 21.0236C4.39772 22.1641 3.3616 22.9705 2.22796 22.8249C1.09434 22.6793 0.292821 21.6369 0.43754 20.4964C1.81292 9.65738 11.2861 1.48631 20.5949 0.183166Z" fill="#769382"/>
<path d="M4.99519 29.2207C4.99519 30.6001 3.87698 31.7183 2.4976 31.7183C1.11821 31.7183 0 30.6001 0 29.2207C0 27.8414 1.11821 26.7231 2.4976 26.7231C3.87698 26.7231 4.99519 27.8414 4.99519 29.2207Z" fill="#769382"/>
<path d="M51.678 34.7932C51.3127 34.7932 50.9322 34.732 50.5364 34.6094C50.1711 34.4869 49.8666 34.1959 49.6231 33.7365C49.3795 33.2771 49.2578 32.5726 49.2578 31.6231C49.2578 31.0105 49.3034 30.2295 49.3947 29.28C49.5165 28.2999 49.6383 27.3504 49.7601 26.4315C50.0036 24.9001 50.2167 23.2155 50.3994 21.3777C50.6125 19.54 50.7191 17.7176 50.7191 15.9105C50.7191 15.2673 50.7038 14.5934 50.6734 13.889C50.6429 13.1845 50.5821 12.5107 50.4907 11.8675C50.3081 11.9594 50.095 12.0512 49.8514 12.1431C49.6383 12.2044 49.4556 12.235 49.3034 12.235C48.999 12.235 48.7859 12.0819 48.6641 11.7756C48.5728 11.4387 48.5271 11.0558 48.5271 10.627C48.5271 9.64687 48.7554 8.86583 49.2121 8.28389C49.6992 7.67131 50.4146 7.11999 51.3584 6.62992C52.6066 5.92546 53.9309 5.42008 55.3313 5.11379C56.7621 4.77687 58.1169 4.60842 59.3955 4.60842C61.283 4.60842 62.9574 4.94533 64.4187 5.61917C65.88 6.29301 67.0217 7.2425 67.8437 8.46766C68.6657 9.69282 69.0766 11.163 69.0766 12.8782C69.0766 14.6547 68.6504 16.2321 67.798 17.6104C66.976 18.9887 65.9105 20.122 64.6014 21.0102C63.3228 21.8678 62.0137 22.4344 60.6742 22.7101C61.1613 23.4758 61.6788 24.2416 62.2268 25.0073C62.8052 25.773 63.3837 26.4621 63.9621 27.0747C65.6974 28.8818 67.4631 29.7854 69.2593 29.7854C69.7464 29.7854 70.1726 29.7548 70.5379 29.6935C70.7206 29.6629 70.8728 29.7394 70.9946 29.9232C71.1468 30.0764 71.2229 30.398 71.2229 30.888C71.2229 31.47 71.1012 32.0672 70.8576 32.6798C70.6141 33.2618 70.2031 33.7518 69.6246 34.15C69.0462 34.5482 68.2547 34.7473 67.25 34.7473C66.0627 34.7473 64.9211 34.3491 63.8251 33.5527C62.7596 32.7564 61.7701 31.7456 60.8568 30.5205C59.9435 29.2647 59.1215 27.9477 58.3909 26.5693C57.6907 25.191 57.097 23.9199 56.6099 22.7561C56.4881 22.4191 56.3816 22.0975 56.2903 21.7912C56.1989 21.4543 56.1533 21.1327 56.1533 20.8264C56.1533 20.3057 56.3207 19.8769 56.6556 19.54C56.8991 19.295 57.234 19.1265 57.6602 19.0346C58.1169 18.9427 58.7714 18.8968 59.6239 18.8968C61.2374 18.8968 62.5465 18.4527 63.5511 17.5644C64.5557 16.6762 65.0581 15.5276 65.0581 14.1187C65.0581 12.5872 64.4796 11.4693 63.3228 10.7648C62.1964 10.0604 60.8112 9.70813 59.1672 9.70813C57.8277 9.70813 56.4273 9.92253 54.966 10.3513C54.8746 12.3422 54.6615 14.6241 54.3266 17.1969C54.144 18.7283 53.9765 20.2445 53.8243 21.7453C53.7025 23.2461 53.6417 24.6091 53.6417 25.8343C53.6417 26.9063 53.733 27.8558 53.9156 28.6827C54.1288 29.4791 54.5397 30.1682 55.1486 30.7502C55.5748 31.179 55.7879 31.6384 55.7879 32.1285C55.7879 32.8023 55.4074 33.4149 54.6463 33.9662C53.8852 34.5176 52.8958 34.7932 51.678 34.7932Z" fill="#769382"/>
<path d="M80.4863 34.931C78.1726 34.931 76.3611 34.2725 75.0521 32.9555C73.7734 31.6078 73.1341 29.7394 73.1341 27.3504C73.1341 25.1757 73.606 23.2002 74.5497 21.4237C75.4935 19.6472 76.7569 18.2383 78.34 17.1969C79.9535 16.1249 81.7193 15.5889 83.6372 15.5889C85.4638 15.5889 86.9251 16.0483 88.0211 16.9672C89.1171 17.8554 89.6651 19.0499 89.6651 20.5508C89.6651 21.7453 89.2998 22.8479 88.5691 23.8587C87.8385 24.8694 86.8642 25.6811 85.6465 26.2937C84.4287 26.8756 83.074 27.1666 81.5823 27.1666C79.7556 27.1666 78.2639 26.7531 77.107 25.9261C77.1375 27.3351 77.6093 28.4683 78.5227 29.326C79.4664 30.1836 80.6689 30.6124 82.1302 30.6124C83.0131 30.6124 83.9112 30.4592 84.8245 30.1529C85.7683 29.816 86.575 29.3719 87.2448 28.8206C87.671 28.453 88.0668 28.2693 88.4321 28.2693C88.7365 28.2693 88.9801 28.3765 89.1628 28.5909C89.3759 28.7746 89.4824 29.0197 89.4824 29.326C89.4824 29.9998 88.904 30.888 87.7471 31.9907C85.7074 33.9509 83.2871 34.931 80.4863 34.931ZM81.1713 24.1343C82.2672 24.1343 83.1806 23.9046 83.9112 23.4452C84.6419 22.9858 85.0072 22.4038 85.0072 21.6994C85.0072 21.1174 84.7636 20.6733 84.2765 20.367C83.7894 20.0301 83.1197 19.8616 82.2672 19.8616C81.1408 19.8616 80.1514 20.1679 79.299 20.7805C78.477 21.3624 77.8833 22.1894 77.518 23.2614C77.9442 23.5371 78.4922 23.7515 79.162 23.9046C79.8317 24.0578 80.5015 24.1343 81.1713 24.1343Z" fill="#769382"/>
<path d="M97.7283 22.3885C96.8758 22.3885 96.1756 22.1128 95.6277 21.5615C95.1101 21.0102 94.8513 20.3057 94.8513 19.4481C94.8513 18.5599 95.1406 17.8248 95.719 17.2428C96.3279 16.6609 97.0737 16.3699 97.9566 16.3699C98.809 16.3699 99.494 16.6303 100.012 17.151C100.529 17.6716 100.788 18.3608 100.788 19.2184C100.788 20.1373 100.499 20.903 99.9202 21.5156C99.3722 22.0975 98.6416 22.3885 97.7283 22.3885ZM96.952 34.7473C96.0995 34.7473 95.3993 34.4716 94.8513 33.9203C94.3338 33.369 94.075 32.6645 94.075 31.8069C94.075 30.9187 94.3642 30.1836 94.9427 29.6016C95.5211 29.0197 96.267 28.7287 97.1803 28.7287C98.0327 28.7287 98.7177 28.989 99.2352 29.5097C99.7528 30.0304 100.012 30.7196 100.012 31.5772C100.012 32.496 99.7223 33.2618 99.1439 33.8743C98.5655 34.4563 97.8348 34.7473 96.952 34.7473Z" fill="#769382"/>
<path d="M106.939 34.7932C106.36 34.7932 105.965 34.6248 105.752 34.2878C105.538 33.9509 105.432 33.5834 105.432 33.1852C105.432 31.2862 105.615 29.1115 105.98 26.6612C106.376 24.2109 106.847 21.7759 107.395 19.3562C107.883 17.3041 108.415 15.3898 108.994 13.6133C109.603 11.8368 110.135 10.382 110.592 9.2487C111.262 7.65599 112.023 6.44615 112.875 5.61917C113.758 4.76156 114.778 4.33275 115.935 4.33275C116.787 4.33275 117.548 4.62373 118.218 5.20568C118.888 5.757 119.284 6.76775 119.406 8.23794C119.588 10.0144 119.801 11.8062 120.045 13.6133C120.288 15.4204 120.562 17.0744 120.867 18.5752C121.171 20.0454 121.491 21.1787 121.826 21.975C122.1 22.6795 122.496 23.0317 123.013 23.0317C123.592 23.0317 124.094 22.6642 124.52 21.9291C124.916 21.2552 125.342 20.3364 125.799 19.1725C126.255 18.0086 126.697 16.7834 127.123 15.497C127.58 14.18 127.975 12.9854 128.31 11.9134C128.706 10.7495 129.148 9.58562 129.635 8.42172C130.152 7.22719 130.807 6.24706 131.598 5.48134C132.39 4.68499 133.379 4.28681 134.567 4.28681C135.663 4.28681 136.439 4.66967 136.895 5.4354C137.383 6.17049 137.626 7.3497 137.626 8.97303C137.626 10.2288 137.58 11.5459 137.489 12.9242C137.459 13.7205 137.413 14.5475 137.352 15.4051C137.322 16.2321 137.306 17.0897 137.306 17.9779C137.306 19.3562 137.367 20.8111 137.489 22.3426C137.641 23.874 137.915 25.3136 138.311 26.6612C138.737 28.0089 139.361 29.1422 140.183 30.061C140.427 30.2754 140.64 30.5205 140.823 30.7961C141.036 31.0718 141.142 31.3781 141.142 31.715C141.142 32.4807 140.731 33.1852 139.909 33.8284C139.118 34.441 138.205 34.7473 137.169 34.7473C136.226 34.7473 135.526 34.441 135.069 33.8284C134.612 33.2158 134.247 32.3888 133.973 31.3475C133.668 30.061 133.455 28.6827 133.334 27.2126C133.212 25.7424 133.151 24.3181 133.151 22.9398C133.151 20.7345 133.227 18.713 133.379 16.8753C133.562 15.0069 133.653 13.6286 133.653 12.7404C133.653 12.2503 133.608 11.8981 133.516 11.6837C133.425 11.4387 133.197 11.3161 132.831 11.3161C132.405 11.3161 132.04 11.5152 131.735 11.9134C131.461 12.281 131.233 12.8017 131.05 13.4755C130.655 14.7619 130.213 16.1402 129.726 17.6104C129.239 19.0806 128.721 20.5201 128.173 21.9291C127.656 23.338 127.093 24.5938 126.484 25.6964C125.784 26.9828 125.022 27.8558 124.2 28.3152C123.409 28.744 122.602 28.9584 121.78 28.9584C120.502 28.9584 119.527 28.5602 118.858 27.7639C118.218 26.9369 117.746 26.0333 117.442 25.0532C117.046 23.7362 116.681 22.021 116.346 19.9076C116.011 17.7635 115.768 15.3592 115.615 12.6944C115.554 11.5612 115.189 10.9945 114.519 10.9945C113.789 10.9945 113.21 11.5459 112.784 12.6485C112.419 13.7511 112.069 15.0529 111.734 16.5537C111.399 18.0239 111.125 19.5706 110.912 21.194C110.729 22.7867 110.638 24.3641 110.638 25.9261C110.638 27.2432 110.683 28.3918 110.775 29.3719C110.897 30.352 110.957 31.2709 110.957 32.1285C110.957 32.7411 110.714 33.2465 110.227 33.6446C109.77 34.0428 109.222 34.3338 108.583 34.5176C107.943 34.7013 107.395 34.7932 106.939 34.7932Z" fill="#769382"/>
<path d="M147.613 11.4999C146.761 11.4693 146.076 11.2089 145.558 10.7189C145.041 10.2288 144.782 9.53967 144.782 8.65143C144.813 7.70194 145.132 6.93621 145.741 6.35426C146.35 5.74169 147.126 5.45071 148.07 5.48134C148.953 5.51197 149.638 5.77231 150.125 6.26238C150.643 6.75244 150.886 7.44159 150.856 8.32983C150.825 9.2487 150.521 10.0144 149.942 10.627C149.364 11.2089 148.588 11.4999 147.613 11.4999ZM147.659 34.7932C146.746 34.7932 146.03 34.5482 145.513 34.0581C144.995 33.5374 144.736 32.6645 144.736 31.4393C144.736 30.7349 144.797 30.0457 144.919 29.3719C145.071 28.6981 145.239 28.0395 145.421 27.3963C145.635 26.7225 145.802 26.0333 145.924 25.3289C146.076 24.6244 146.152 23.874 146.152 23.0777C146.152 22.5263 146.076 22.0056 145.924 21.5156C145.772 20.9949 145.437 20.612 144.919 20.367C144.523 20.1526 144.173 19.9382 143.869 19.7238C143.595 19.4788 143.458 19.1725 143.458 18.8049C143.458 18.3761 143.656 17.9167 144.051 17.4266C144.447 16.9366 144.965 16.5231 145.604 16.1861C146.274 15.8186 146.959 15.6348 147.659 15.6348C148.42 15.6348 148.968 15.8339 149.303 16.2321C149.668 16.6303 149.912 17.1356 150.034 17.7482C150.155 18.3608 150.216 18.9887 150.216 19.6319C150.216 20.612 150.14 21.5768 149.988 22.5263C149.836 23.4452 149.684 24.3028 149.531 25.0992C149.41 25.6811 149.318 26.2171 149.257 26.7072C149.196 27.1972 149.166 27.6567 149.166 28.0855C149.166 28.8512 149.349 29.4332 149.714 29.8313C150.079 30.1989 150.597 30.5511 151.267 30.888C151.541 31.0412 151.678 31.2709 151.678 31.5772C151.678 31.8222 151.556 32.2051 151.312 32.7258C151.069 33.2465 150.643 33.7212 150.034 34.15C149.455 34.5788 148.664 34.7932 147.659 34.7932Z" fill="#769382"/>
<path d="M157.662 34.8392C156.566 34.8392 156.079 34.4716 156.201 33.7365C156.536 32.4195 156.81 31.0871 157.023 29.7394C157.266 28.3611 157.388 27.0441 157.388 25.7883C157.388 24.165 157.281 22.9858 157.068 22.2507C156.886 21.4849 156.627 20.9643 156.292 20.6886C155.957 20.3823 155.546 20.1526 155.059 19.9994C154.846 19.9076 154.648 19.785 154.465 19.6319C154.313 19.4788 154.237 19.2644 154.237 18.9887C154.237 18.5599 154.404 18.0851 154.739 17.5644C155.074 17.0438 155.546 16.5996 156.155 16.2321C156.794 15.8339 157.51 15.6348 158.301 15.6348C159.336 15.6348 160.052 16.0024 160.448 16.7375C160.843 17.4419 161.041 18.3761 161.041 19.54C161.041 20.3057 160.965 21.1633 160.813 22.1128C160.661 23.0623 160.508 23.9199 160.356 24.6857L160.493 24.7316C161.102 23.1083 161.833 21.6075 162.685 20.2292C163.568 18.8202 164.588 17.687 165.745 16.8294C166.902 15.9717 168.241 15.5429 169.763 15.5429C171.377 15.5429 172.61 16.033 173.462 17.0131C174.315 17.9933 174.741 19.2184 174.741 20.6886C174.741 21.3012 174.665 21.8831 174.513 22.4344C174.391 22.9858 174.254 23.5218 174.102 24.0425C173.949 24.5325 173.812 25.0379 173.691 25.5586C173.599 26.0793 173.554 26.6 173.554 27.1207C173.554 28.8665 174.376 30.0457 176.02 30.6583C176.446 30.8421 176.659 31.1177 176.659 31.4853C176.659 31.761 176.568 32.1591 176.385 32.6798C176.202 33.2005 175.867 33.6906 175.38 34.15C174.893 34.5788 174.178 34.7932 173.234 34.7932C172.016 34.7932 171.072 34.3644 170.403 33.5068C169.733 32.6186 169.398 31.5006 169.398 30.1529C169.398 29.3872 169.474 28.6215 169.626 27.8558C169.809 27.0594 169.992 26.3243 170.174 25.6505C170.296 25.1298 170.403 24.6244 170.494 24.1343C170.616 23.6137 170.677 23.1542 170.677 22.7561C170.677 21.3471 169.946 20.6427 168.485 20.6427C167.237 20.6427 166.141 21.1174 165.197 22.0669C164.253 22.9858 163.446 24.1497 162.777 25.5586C162.107 26.9675 161.559 28.3918 161.133 29.8313V30.934C161.133 32.0672 160.813 33.0014 160.174 33.7365C159.565 34.4716 158.727 34.8392 157.662 34.8392Z" fill="#769382"/>
<path d="M185.296 34.931C183.469 34.931 182.023 34.3185 180.958 33.0933C179.922 31.8682 179.405 30.1989 179.405 28.0855C179.405 26.5234 179.648 24.992 180.136 23.4911C180.653 21.9903 181.368 20.6427 182.282 19.4481C183.195 18.2536 184.261 17.3041 185.478 16.5996C186.696 15.8952 188.02 15.5429 189.451 15.5429C190.365 15.5429 191.171 15.6808 191.872 15.9564C192.602 16.2321 193.242 16.5843 193.79 17.0131C193.759 14.9304 193.653 13.062 193.47 11.408C193.287 9.75407 192.846 8.22263 192.146 6.8137C192.024 6.56867 191.917 6.35426 191.826 6.17049C191.765 5.95609 191.735 5.757 191.735 5.57323C191.735 5.14442 191.902 4.74625 192.237 4.3787C192.602 4.01115 193.044 3.70486 193.561 3.45983C194.079 3.2148 194.566 3.09229 195.023 3.09229C195.845 3.09229 196.453 3.45983 196.849 4.19493C197.275 4.89939 197.549 5.87952 197.671 7.1353C197.793 8.36046 197.854 9.76939 197.854 11.3621C197.854 13.6899 197.747 15.788 197.534 17.6563C197.321 19.5247 197.123 21.1633 196.94 22.5723C196.819 23.4911 196.712 24.2875 196.621 24.9613C196.529 25.6352 196.484 26.1865 196.484 26.6153C196.484 28.7899 197.412 30.0764 199.269 30.4745C199.757 30.5664 200 30.888 200 31.4393C200 31.7763 199.894 32.2051 199.68 32.7258C199.498 33.2465 199.148 33.7212 198.63 34.15C198.113 34.5482 197.367 34.7473 196.392 34.7473C195.083 34.7473 194.201 34.3032 193.744 33.4149C193.287 32.5267 193.059 31.179 193.059 29.3719C192.206 30.934 191.126 32.251 189.817 33.323C188.508 34.395 187.001 34.931 185.296 34.931ZM186.711 30.0151C187.564 30.0151 188.416 29.7394 189.269 29.1881C190.121 28.6368 190.882 27.8864 191.552 26.9369C191.948 26.3549 192.298 25.6964 192.602 24.9613C192.937 24.1956 193.242 23.4299 193.516 22.6642C191.963 21.2552 190.243 20.5508 188.355 20.5508C186.711 20.5508 185.402 21.0561 184.428 22.0669C183.454 23.047 182.967 24.2722 182.967 25.7424C182.967 26.9982 183.332 28.0242 184.063 28.8206C184.793 29.6169 185.676 30.0151 186.711 30.0151Z" fill="#769382"/>
</svg>
