<svg width="94" height="92" viewBox="0 0 94 92" fill="none" xmlns="http://www.w3.org/2000/svg">
<path d="M55.1005 35.4014C53.6733 33.6202 52.6319 32.0293 52.317 30.9293C51.3892 27.6876 52.7809 1.75051 52.317 1.75016C51.8531 1.7498 46.75 1.75016 46.75 1.75016C46.75 1.75016 41.6469 1.7498 41.183 1.75016C40.7191 1.75051 42.1108 27.6876 41.183 30.9293C40.8681 32.0293 39.8267 33.6202 38.3995 35.4014M55.1005 35.4014C57.8789 38.869 62.1193 43.0577 65.3067 45.7504C66.006 46.3411 66.7178 46.9568 67.4327 47.6024M55.1005 35.4014C56.8015 32.6754 59.9253 25.2782 58.8119 17.4972C58.3479 13.3287 63.9149 9.16027 67.1624 9.62343C70.4098 10.0866 75.5129 14.255 78.2964 18.8866C81.0799 23.5182 91.75 45.2492 91.75 70.2979C91.75 89.75 78.2964 89.75 67.6263 89.75C62.6778 89.596 52.9654 86.957 52.317 77.7085C51.5737 67.1054 50.2725 57.5883 53.4196 45.7504M53.4196 45.7504C55.774 47.7908 59.0551 50.2443 62.9871 52.6978C64.5184 53.6533 65.9115 54.9242 67.1624 56.356M53.4196 45.7504C51.3295 43.939 49.9698 42.4532 49.5335 41.5819C48.7912 40.0998 47.3686 39.7293 46.75 39.7293C46.1314 39.7293 44.7088 40.0998 43.9665 41.5819C43.5302 42.4532 42.1705 43.939 40.0804 45.7504M67.4327 47.6024C68.7099 46.3547 70.5471 44.3584 72.2655 42.1054M67.4327 47.6024C70.3455 50.2331 73.3093 53.3612 75.6881 57.3288M72.2655 42.1054C74.5869 39.0616 76.6914 35.5493 76.9046 32.7813M72.2655 42.1054C72.6366 38.8194 71.4923 35.1377 70.8737 33.7076M72.2655 42.1054C74.5851 41.9307 79.5954 41.7666 81.0799 42.5077M75.6881 57.3288C76.7362 56.5606 78.3519 55.2038 79.8022 53.6235M75.6881 57.3288C77.6297 60.5672 79.1815 64.3648 79.9976 68.9078M79.8022 53.6235C81.2667 52.0278 82.5626 50.2042 82.9356 48.5287M79.8022 53.6235C81.4652 53.7779 85.0696 54.3646 86.183 55.4761M79.9976 68.9078C80.0524 69.2132 80.104 69.5219 80.1521 69.8341L80.1966 70.1228C81.0808 75.8552 81.3231 77.4264 78.2964 77.7085C76.1596 77.9076 75.594 73.7735 75.154 71.6867M79.9976 68.9078C80.674 68.6341 81.8282 68.2688 83.1678 68.0251M83.1678 68.0251C84.6947 67.7474 86.4625 67.6276 88.0387 67.9815M83.1678 68.0251C83.709 66.9299 84.7912 64.3688 84.7912 62.8867M75.154 71.6867C75.1184 71.5181 75.0837 71.3628 75.049 71.2242C74.6808 69.7538 71.9746 61.8644 67.1624 56.356M75.154 71.6867C74.2459 72.3328 72.812 73.5196 71.5446 74.9289M71.5446 74.9289C70.3891 76.2138 69.372 77.6836 69.018 79.0973M71.5446 74.9289C70.2385 74.7745 67.3479 74.1878 66.2345 73.0762M67.1624 56.356C66.5601 57.3405 65.4449 58.9361 64.0307 60.5709M64.0307 60.5709C62.5397 62.2944 60.7165 64.0616 58.8119 65.2025M64.0307 60.5709C64.456 62.2692 64.9356 66.4994 63.451 69.8341M38.3995 35.4014C35.6211 38.869 31.3807 43.0577 28.1933 45.7504C27.494 46.3411 26.7822 46.9568 26.0673 47.6024M38.3995 35.4014C36.6985 32.6754 33.5747 25.2782 34.6881 17.4972C35.1521 13.3287 29.5851 9.16027 26.3376 9.62343C23.0902 10.0866 17.9871 14.255 15.2036 18.8866C12.4201 23.5182 1.75 45.2492 1.75 70.2979C1.75 89.75 15.2036 89.75 25.8737 89.75C30.8222 89.596 40.5346 86.957 41.183 77.7085C41.9263 67.1054 43.2275 57.5883 40.0804 45.7504M40.0804 45.7504C37.726 47.7908 34.4449 50.2443 30.5129 52.6978C28.9816 53.6533 27.5885 54.9242 26.3376 56.356M26.0673 47.6024C24.7901 46.3547 22.9529 44.3584 21.2345 42.1054M26.0673 47.6024C23.1545 50.2331 20.1907 53.3612 17.8119 57.3288M21.2345 42.1054C18.9131 39.0616 16.8086 35.5493 16.5954 32.7813M21.2345 42.1054C20.8634 38.8194 22.0077 35.1377 22.6263 33.7076M21.2345 42.1054C18.9149 41.9307 13.9046 41.7666 12.4201 42.5077M17.8119 57.3288C16.7637 56.5606 15.1481 55.2038 13.6978 53.6235M17.8119 57.3288C15.8703 60.5672 14.3185 64.3648 13.5024 68.9078M13.6978 53.6235C12.2333 52.0278 10.9374 50.2042 10.5644 48.5287M13.6978 53.6235C12.0348 53.7779 8.43041 54.3646 7.31701 55.4761M13.5024 68.9078C13.4476 69.2132 13.396 69.5219 13.3479 69.8341L13.3034 70.1228C12.4192 75.8552 12.1769 77.4264 15.2036 77.7085C17.3404 77.9076 17.906 73.7735 18.346 71.6867M13.5024 68.9078C12.826 68.6341 11.6719 68.2688 10.3322 68.0251M10.3322 68.0251C8.80534 67.7474 7.03752 67.6276 5.46134 67.9815M10.3322 68.0251C9.79105 66.9299 8.70876 64.3688 8.70876 62.8867M18.346 71.6867C18.3816 71.5181 18.4163 71.3628 18.451 71.2242C18.8192 69.7538 21.5254 61.8644 26.3376 56.356M18.346 71.6867C19.2541 72.3328 20.688 73.5196 21.9554 74.9289M21.9554 74.9289C23.1109 76.2138 24.128 77.6836 24.482 79.0973M21.9554 74.9289C23.2615 74.7745 26.1521 74.1878 27.2655 73.0762M26.3376 56.356C26.9399 57.3405 28.0551 58.9361 29.4693 60.5709M29.4693 60.5709C30.9603 62.2944 32.7835 64.0616 34.6881 65.2025M29.4693 60.5709C29.044 62.2692 28.5644 66.4994 30.049 69.8341" stroke="#1A1A1A" stroke-width="3.5" stroke-linecap="round"/>
</svg>
