<svg width="62" height="62" viewBox="0 0 62 62" fill="none" xmlns="http://www.w3.org/2000/svg">
<path d="M2 10C2 5.58172 5.58172 2 10 2H52C56.4183 2 60 5.58172 60 10V42.5C60 42.8196 59.8706 43.1257 59.6414 43.3484L44.8283 57.7382C43.3352 59.1887 41.3356 60 39.254 60H10C5.58172 60 2 56.4183 2 52V10Z" fill="#E4EBE6"/>
<path d="M60 14.8889H2M60 14.8889V32.6111M27.7778 60H15.4982C10.7734 60 8.41097 60 6.60633 59.0969C5.01893 58.3025 3.72833 57.035 2.91951 55.4759C2 53.7035 2 51.3833 2 46.7429V14.8889C2 10.2485 2 8.29649 2.91951 6.52408C3.72833 4.96502 5.01893 3.69747 6.60633 2.90309C8.41097 2 10.7734 2 15.4982 2L46.5018 2.00001C51.2266 2.00001 53.589 2.00001 55.3937 2.90309C56.9811 3.69747 58.2717 4.96503 59.0805 6.52408C60 8.2965 60 10.2485 60 14.8889M36.3704 35.5648H25.6296H14.889M25.6296 44.1574H14.889M47.1111 26.9722H36.3704H25.6296H14.8889M60 42.2778L42.2778 60L34.2222 51.9444" stroke="#1A1A1A" stroke-width="3" stroke-linecap="round" stroke-linejoin="round"/>
</svg>
