<svg width="62" height="62" viewBox="0 0 62 62" fill="none" xmlns="http://www.w3.org/2000/svg">
<path d="M59.0475 46.9421V16.0738H2.95253V47.0276C2.95253 49.4143 2.95328 51.114 3.06401 52.4451C3.17323 53.7581 3.38156 54.5809 3.72234 55.238C4.40059 56.5453 5.48603 57.6137 6.82655 58.2845C7.50471 58.6239 8.35245 58.8293 9.6953 58.9371C11.0547 59.0462 12.7895 59.0476 15.2185 59.0476H46.7815C49.2105 59.0476 50.9453 59.0462 52.3047 58.9371C53.6476 58.8293 54.4953 58.6239 55.1735 58.2845C56.514 57.6137 57.5994 56.5454 58.2777 55.238C58.6162 54.5852 58.8252 53.7446 58.935 52.4048C59.046 51.0511 59.0475 49.3283 59.0475 46.9421ZM25.5325 42.9191C26.3478 42.9191 27.0087 43.58 27.0087 44.3953C27.0086 45.2105 26.3478 45.8715 25.5325 45.8715H14.5976C13.7826 45.8712 13.1216 45.2103 13.1215 44.3953C13.1215 43.5801 13.7826 42.9193 14.5976 42.9191H25.5325ZM36.4675 34.1715C37.2827 34.1716 37.9436 34.8325 37.9436 35.6477C37.9434 36.4627 37.2825 37.1238 36.4675 37.1239H14.5976C13.7827 37.1236 13.1217 36.4626 13.1215 35.6477C13.1215 34.8326 13.7826 34.1717 14.5976 34.1715H36.4675ZM47.4024 25.423C48.2174 25.4231 48.8784 26.0841 48.8785 26.8992C48.8785 27.7143 48.2175 28.3752 47.4024 28.3753H14.5976C13.7825 28.3752 13.1215 27.7143 13.1215 26.8992C13.1216 26.0841 13.7826 25.4231 14.5976 25.423H47.4024ZM15.2185 2.95238C12.7895 2.95238 11.0547 2.95382 9.6953 3.0629C8.35245 3.17066 7.50471 3.37612 6.82655 3.71546C5.48603 4.3863 4.40059 5.45465 3.72234 6.76203C3.07127 8.01725 2.96994 9.38001 2.95541 13.1214H59.0446C59.0301 9.38 58.9287 8.01725 58.2777 6.76203C57.5994 5.45465 56.514 4.3863 55.1735 3.71546C54.4953 3.37612 53.6476 3.17066 52.3047 3.0629C50.9453 2.95382 49.2105 2.95238 46.7815 2.95238H15.2185ZM61.9998 46.9421C61.9998 49.2798 62.0008 51.143 61.8778 52.645C61.7536 54.1605 61.4949 55.4464 60.8975 56.5979C59.9289 58.4648 58.3864 59.978 56.4949 60.9246C55.336 61.5045 54.0624 61.7578 52.5411 61.8799C51.0362 62.0006 49.1626 62 46.7815 62H15.2185C12.8374 62 10.9638 62.0006 9.45888 61.8799C7.93762 61.7578 6.66405 61.5045 5.5051 60.9246C3.61359 59.978 2.07109 58.4648 1.1025 56.5979C0.507313 55.4506 0.247012 54.1901 0.122218 52.6902C-0.00106001 51.2083 0.00016358 49.3648 0.000163723 47.0276V14.5976C0.000161983 10.0342 -0.0391676 7.60277 1.1025 5.40213C2.07109 3.5352 3.61359 2.02202 5.5051 1.07543C6.66405 0.495455 7.93762 0.242226 9.45888 0.120133C10.9638 -0.000629802 12.8374 -1.60322e-07 15.2185 7.43118e-08H46.7815C49.1626 3.08946e-07 51.0362 -0.000629919 52.5411 0.120133C54.0624 0.242226 55.336 0.495455 56.4949 1.07543C58.3864 2.02202 59.9289 3.5352 60.8975 5.40213C62.0392 7.60277 61.9998 10.0342 61.9998 14.5976V46.9421Z" fill="#1A1A1A"/>
</svg>
