<svg width="68" height="68" viewBox="0 0 68 68" fill="none" xmlns="http://www.w3.org/2000/svg">
<path d="M51.3714 66C59.4505 66 66 59.4505 66 51.3714C66 43.2922 59.4505 36.7427 51.3714 36.7427C43.2922 36.7427 36.7428 43.2922 36.7428 51.3714C36.7428 59.4505 43.2922 66 51.3714 66Z" fill="#A8BFAF"/>
<path d="M60.3292 14.9621H2M60.3292 14.9621V32.7849M32.7849 60.3294H15.5748C10.8232 60.3294 8.44736 60.3294 6.63248 59.4211C5.03607 58.6223 3.73814 57.3475 2.92473 55.7796C2 53.9971 2 51.6637 2 46.9969L2 14.9621C2 10.2953 2 8.33225 2.92473 6.54977C3.73814 4.98186 5.03607 3.70711 6.63248 2.90822C8.44737 2 10.8232 2 15.5748 2L46.7544 2.00001C51.5061 2.00001 53.8819 2.00001 55.6968 2.90822C57.2932 3.70711 58.5911 4.98186 59.4045 6.54978C60.3293 8.33225 60.3292 10.2953 60.3292 14.9621M36.5655 35.7554H25.7638H14.9622M25.7638 44.3968H14.9622M47.3672 27.114H36.5655H25.7638H14.9621M51.3561 44.057V53.1999M51.3561 59.0514H51.3707M66 51.3714C66 59.4505 59.4505 66 51.3714 66C43.2922 66 36.7428 59.4505 36.7428 51.3714C36.7428 43.2922 43.2922 36.7427 51.3714 36.7427C59.4505 36.7427 66 43.2922 66 51.3714Z" stroke="#1A1A1A" stroke-width="3" stroke-linecap="round" stroke-linejoin="round"/>
</svg>
