<svg width="68" height="68" viewBox="0 0 68 68" fill="none" xmlns="http://www.w3.org/2000/svg">
<path d="M59.1843 38.5713C59.1842 24.5113 47.8881 13.1426 33.99 13.1426C20.0921 13.1428 8.79669 24.5115 8.79661 38.5713C8.79661 52.6312 20.092 63.9997 33.99 64C47.8881 64 59.1843 52.6313 59.1843 38.5713ZM25.1501 24.9707C26.0492 24.329 27.2984 24.5375 27.9402 25.4365L35.6052 36.1738H47.4275C48.532 36.1738 49.4274 37.0693 49.4275 38.1738C49.4275 39.2784 48.532 40.1738 47.4275 40.1738H34.5749C33.9289 40.1738 33.3224 39.8618 32.947 39.3359L24.6843 27.7598C24.0429 26.8608 24.2513 25.6124 25.1501 24.9707ZM8.59739 6.97168C9.37835 6.19055 10.6444 6.19074 11.4255 6.97168C12.2066 7.75262 12.2074 9.01867 11.4265 9.7998L3.4138 17.8135C2.63283 18.5945 1.36678 18.5944 0.585675 17.8135C-0.195236 17.0325 -0.195214 15.7664 0.585675 14.9854L8.59739 6.97168ZM56.574 5.38477C57.3551 4.60423 58.6213 4.60475 59.4021 5.38574L67.4138 13.3994C68.1947 14.1805 68.1948 15.4466 67.4138 16.2275C66.6327 17.0084 65.3667 17.0085 64.5857 16.2275L56.573 8.21387C55.792 7.43273 55.7928 6.16573 56.574 5.38477ZM41.989 0C43.0934 0.000154605 43.989 0.895526 43.989 2C43.989 3.10447 43.0934 3.99985 41.989 4H25.9919C24.8875 3.99986 23.9919 3.10448 23.9919 2C23.9919 0.895518 24.8875 0.000141207 25.9919 0H41.989ZM63.1843 38.5713C63.1843 54.808 50.1296 68 33.99 68C17.8506 67.9997 4.79661 54.8079 4.79661 38.5713C4.79669 22.3348 17.8506 9.14284 33.99 9.14258C50.1295 9.14258 63.1842 22.3346 63.1843 38.5713Z" fill="#1A1A1A"/>
</svg>
