<svg width="64" height="48" viewBox="0 0 64 48" fill="none" xmlns="http://www.w3.org/2000/svg">
<path d="M30.957 2.59473C31.4585 1.80168 32.5415 1.80168 33.043 2.59473L43.9775 19.8955L45.208 21.8418L46.9629 20.3516L60.1484 9.15723L60.2314 9.08691L60.3057 9.00879C60.4817 8.82308 60.7644 8.82308 60.9404 9.00879L61.167 9.24805L61.459 9.40137C61.6194 9.48598 61.7183 9.58797 61.8086 9.82617C61.9148 10.1064 61.9847 10.5389 61.9951 11.1992L55.6025 44.9141L55.5674 45.0986V45.2861C55.5674 45.4327 55.5213 45.5562 55.3389 45.6973C55.1217 45.8651 54.7597 46 54.3516 46H9.64844C9.00254 46 8.54037 45.6669 8.39746 44.9141L2.00391 11.2012C2.02565 10.3407 2.2245 9.7647 2.71289 9.31641C3.36084 9.02162 3.75153 9.12347 3.9502 9.24121L17.0371 20.3516L18.792 21.8418L20.0225 19.8955L30.957 2.59473Z" fill="#A8BFAF" stroke="#769382" stroke-width="4"/>
</svg>
