<svg width="85" height="84" viewBox="0 0 85 84" fill="none" xmlns="http://www.w3.org/2000/svg">
<path d="M45.6441 35.1634C46.5345 35.1634 47.3884 35.543 48.018 36.2187C48.6476 36.8944 49.0013 37.8108 49.0013 38.7663V67.5891C49.0013 71.4112 47.5865 75.0768 45.0681 77.7795C42.5497 80.4821 39.1339 82.0005 35.5724 82.0005H15.4289C11.8674 82.0005 8.45166 80.4821 5.93325 77.7795C3.41483 75.0768 2 71.4112 2 67.5891V38.7663C2 37.8108 2.35371 36.8944 2.98331 36.2187C3.61292 35.543 4.46684 35.1634 5.35724 35.1634H52.3586C55.9201 35.1634 59.3358 36.6818 61.8543 39.3844C64.3727 42.0871 65.7875 45.7527 65.7875 49.5748C65.7875 53.397 64.3727 57.0626 61.8543 59.7652C59.3358 62.4679 55.9201 63.9862 52.3586 63.9862H49.0013M6.36873 5.05507C4.02506 13.7813 13.1373 15.8177 11.4312 23.3826M17.5062 2.00049C14.6561 13.2722 27.3126 13.7813 23.7688 24.9815M39.586 26.5088L37.4375 11.7449H83L75.4063 74.364H55.6625" stroke="#1A1A1A" stroke-width="4" stroke-linecap="round" stroke-linejoin="round"/>
</svg>
