<svg width="84" height="94" viewBox="0 0 84 94" fill="none" xmlns="http://www.w3.org/2000/svg">
<path d="M66.7766 42.5016V20.0005C66.7766 17.6134 65.9746 15.3241 64.5471 13.6362C63.1196 11.9483 61.1834 11.0001 59.1646 11.0001C57.1457 11.0001 55.2095 11.9483 53.782 13.6362C52.3545 15.3241 51.5525 17.6134 51.5525 20.0005M51.5534 38.0017V11.0004C51.5534 8.61337 50.7515 6.32407 49.3239 4.63616C47.8964 2.94826 45.9603 2 43.9414 2C41.9226 2 39.9864 2.94826 38.5589 4.63616C37.1314 6.32407 36.3294 8.61337 36.3294 11.0004V20.0009M36.3294 20.0009L36.33 40.2515M36.3294 20.0009C36.3294 17.6138 35.528 15.3241 34.1005 13.6362C32.6729 11.9483 30.7368 11.0001 28.718 11.0001C26.6991 11.0001 24.763 11.9483 23.3354 13.6362C21.9079 15.3241 21.1059 17.6134 21.1059 20.0005V56.0022M66.7759 29C66.7759 26.6131 67.5779 24.3239 69.0053 22.6361C70.4328 20.9482 72.3688 20 74.3876 20C76.4063 20 78.3424 20.9482 79.7698 22.6361C81.1973 24.3239 81.9993 26.6131 81.9993 29V56C81.9993 65.5478 78.7915 74.7045 73.0816 81.4558C67.3718 88.2072 59.6275 92 51.5525 92H43.9409C33.2845 92 26.8146 88.13 21.1439 81.47L3.96218 58.8488C2.65273 57.134 1.95113 54.8895 2.00265 52.58C2.05417 50.2705 2.85486 48.0729 4.23894 46.4421C5.62303 44.8114 7.48449 43.8724 9.43791 43.8197C11.3913 43.7669 16.7678 51.0257 18.2134 52.58L24.9117 60.5" stroke="#1A1A1A" stroke-width="4" stroke-linecap="round" stroke-linejoin="round"/>
</svg>
