<svg width="50" height="93" viewBox="0 0 50 93" fill="none" xmlns="http://www.w3.org/2000/svg">
<path d="M38.1134 85.9877L36.1251 86.2033L38.1134 85.9877ZM15.2218 62.7069L15.6567 60.7547L15.2218 62.7069ZM8.18334 53.8694L10.1814 53.7815V53.7815L8.18334 53.8694ZM20.0981 23.9086L18.5294 25.1493V25.1493L20.0981 23.9086ZM24.8996 43.1837L22.9422 43.5944C23.1672 44.6666 24.2129 45.3582 25.2876 45.1457C26.3623 44.9332 27.066 43.8956 26.866 42.8185L24.8996 43.1837ZM26.5333 52.1385L26.1493 54.1012L26.2067 54.1125L26.2647 54.1203L26.5333 52.1385ZM20.0981 45.7784L18.1549 46.2518L18.1743 46.3312L18.2 46.4088L20.0981 45.7784ZM20.3006 34.8015C20.175 33.7041 19.1836 32.9163 18.0862 33.0419C16.9887 33.1674 16.2009 34.1589 16.3265 35.2563L18.3135 35.0289L20.3006 34.8015ZM4 29.3353C4 28.2307 3.10457 27.3353 2 27.3353C0.89543 27.3353 0 28.2307 0 29.3353H2H4ZM0 91C0 92.1046 0.89543 93 2 93C3.10457 93 4 92.1046 4 91H2H0ZM26.5095 91C26.5095 92.1046 27.4049 93 28.5095 93C29.6141 93 30.5095 92.1046 30.5095 91H28.5095H26.5095ZM22.3327 30.9515L20.3595 31.2777L20.3665 31.3201L20.3753 31.3623L22.3327 30.9515ZM36.4574 69.0134L34.466 69.1993L36.4574 69.0134ZM31.9464 64.4918L31.7555 66.4827L31.9464 64.4918ZM45.9413 58.9476L43.966 59.2609C44.1389 60.3509 44.5135 65.2491 44.917 70.792C45.3142 76.2473 45.7306 82.1847 45.9879 85.1702L47.9805 84.9984L49.9731 84.8267C49.7188 81.8765 49.3059 75.988 48.9065 70.5016C48.5134 65.1028 48.1242 59.9434 47.9166 58.6343L45.9413 58.9476ZM47.9805 84.9984L45.9879 85.1702C46.0637 86.0501 45.7766 86.6549 45.3368 87.0923C44.8563 87.5701 44.1141 87.915 43.2713 88.0058C42.428 88.0966 41.6496 87.9159 41.1041 87.5569C40.6106 87.2321 40.2024 86.7002 40.1018 85.7722L38.1134 85.9877L36.1251 86.2033C36.3534 88.309 37.4069 89.9122 38.9051 90.8982C40.3514 91.8501 42.0945 92.1557 43.6998 91.9828C45.3055 91.8098 46.9386 91.1406 48.1574 89.9284C49.417 88.6758 50.1531 86.9145 49.9731 84.8267L47.9805 84.9984ZM38.1134 85.9877L40.1018 85.7722C39.6654 81.7469 38.9072 73.7374 38.4487 68.8274L36.4574 69.0134L34.466 69.1993C34.9237 74.1003 35.6848 82.1423 36.1251 86.2033L38.1134 85.9877ZM31.9464 64.4918L32.1372 62.501C29.2813 62.2272 25.4178 61.8509 22.1145 61.5087C20.462 61.3375 18.956 61.1754 17.7887 61.0393C16.5622 60.8963 15.8428 60.7962 15.6567 60.7547L15.2218 62.7069L14.7869 64.659C15.224 64.7564 16.1923 64.8803 17.3255 65.0124C18.518 65.1514 20.0437 65.3155 21.7022 65.4874C25.021 65.8312 28.8966 66.2086 31.7555 66.4827L31.9464 64.4918ZM15.2218 62.7069L15.6567 60.7547C15.001 60.6086 13.6572 60.1469 12.479 59.0904C11.3567 58.084 10.2996 56.47 10.1814 53.7815L8.18334 53.8694L6.18527 53.9572C6.3531 57.7745 7.92719 60.3814 9.80864 62.0685C11.6341 63.7054 13.6666 64.4094 14.7869 64.659L15.2218 62.7069ZM8.18334 53.8694L10.1814 53.7815C10.041 50.5879 9.96146 43.1211 10.3969 36.3047C10.6153 32.8871 10.9585 29.7124 11.4658 27.3424C11.7212 26.149 11.9992 25.253 12.2771 24.6582C12.6024 23.9617 12.7302 24.0972 12.4162 24.2093L11.744 22.3256L11.0718 20.442C9.78755 20.9003 9.06741 22.078 8.65289 22.9654C8.19085 23.9547 7.83704 25.1846 7.55439 26.5051C6.98551 29.1629 6.62752 32.5677 6.40507 36.0497C5.95898 43.0324 6.03964 50.645 6.18527 53.9572L8.18334 53.8694ZM11.744 22.3256L12.4162 24.2093C15.675 23.0463 17.577 23.9451 18.5294 25.1493L20.0981 23.9086L21.6667 22.6679C19.4252 19.8339 15.575 18.8349 11.0718 20.442L11.744 22.3256ZM20.0981 23.9086L18.5294 25.1493C18.5036 25.1167 18.6369 25.3185 18.882 25.9965C19.0975 26.5925 19.338 27.3767 19.5941 28.3043C20.105 30.155 20.6464 32.4609 21.1441 34.7314C21.6405 36.9965 22.088 39.202 22.4117 40.843C22.5735 41.6629 22.7041 42.3407 22.7942 42.813C22.8392 43.0491 22.8741 43.2337 22.8977 43.359C22.9095 43.4217 22.9184 43.4695 22.9244 43.5015C22.9274 43.5174 22.9296 43.5295 22.9311 43.5374C22.9318 43.5414 22.9324 43.5443 22.9327 43.5462C22.9329 43.5472 22.933 43.5479 22.9331 43.5483C22.9332 43.5486 22.9332 43.5487 22.9332 43.5488C22.9332 43.5489 22.9332 43.5489 24.8996 43.1837C26.866 42.8185 26.866 42.8184 26.8659 42.8182C26.8659 42.818 26.8658 42.8178 26.8658 42.8175C26.8657 42.8169 26.8655 42.816 26.8653 42.8148C26.8649 42.8126 26.8643 42.8093 26.8634 42.8049C26.8618 42.7963 26.8595 42.7835 26.8563 42.7668C26.8501 42.7333 26.8408 42.684 26.8288 42.6198C26.8046 42.4913 26.7691 42.3033 26.7234 42.0636C26.632 41.5843 26.4997 40.8981 26.3361 40.0688C26.0091 38.4111 25.5557 36.1765 25.0513 33.8751C24.5482 31.5793 23.989 29.1926 23.4499 27.2399C23.181 26.2659 22.9092 25.3707 22.6437 24.6365C22.408 23.9844 22.0917 23.2052 21.6667 22.6679L20.0981 23.9086ZM20.0981 45.7784L22.0412 45.305C21.5412 43.2528 21.1058 40.6403 20.7926 38.5041C20.637 37.4438 20.5137 36.5153 20.4293 35.8524C20.3871 35.5212 20.3548 35.2567 20.333 35.0759C20.3221 34.9855 20.3139 34.916 20.3085 34.8696C20.3058 34.8464 20.3037 34.8289 20.3024 34.8175C20.3017 34.8118 20.3013 34.8076 20.301 34.8049C20.3008 34.8035 20.3007 34.8026 20.3006 34.802C20.3006 34.8017 20.3006 34.8016 20.3006 34.8015C20.3006 34.8014 20.3006 34.8014 20.3006 34.8014C20.3006 34.8015 20.3006 34.8015 18.3135 35.0289C16.3265 35.2563 16.3265 35.2564 16.3265 35.2565C16.3265 35.2566 16.3266 35.2567 16.3266 35.2569C16.3266 35.2572 16.3267 35.2576 16.3267 35.2581C16.3268 35.2591 16.327 35.2605 16.3272 35.2623C16.3276 35.2659 16.3282 35.271 16.329 35.2776C16.3305 35.2909 16.3327 35.3102 16.3357 35.3353C16.3416 35.3856 16.3503 35.459 16.3616 35.5536C16.3844 35.7427 16.4179 36.0163 16.4613 36.3576C16.5482 37.0397 16.6749 37.9939 16.8349 39.0845C17.1525 41.2502 17.6093 44.0125 18.1549 46.2518L20.0981 45.7784ZM26.5333 52.1385L26.9174 50.1757C24.4151 49.686 23.8123 49.2934 23.5028 48.9409C23.3271 48.7409 23.1382 48.4263 22.89 47.7872C22.631 47.1207 22.387 46.3248 21.9961 45.148L20.0981 45.7784L18.2 46.4088C18.5478 47.456 18.8543 48.4452 19.1614 49.2357C19.4792 50.0538 19.8719 50.8683 20.4972 51.5803C21.7894 53.0519 23.6656 53.6152 26.1493 54.1012L26.5333 52.1385ZM2 29.3353H0V70.6869H2H4V29.3353H2ZM2 70.6869H0V91H2H4V70.6869H2ZM2 70.6869V72.6869H27.5095V70.6869V68.6869H2V70.6869ZM28.5095 71.6869H26.5095V91H28.5095H30.5095V71.6869H28.5095ZM25.5111 9.67459H23.5111C23.5111 12.8135 20.9745 15.3492 17.8564 15.3492V17.3492V19.3492C23.1935 19.3492 27.5111 15.0128 27.5111 9.67459H25.5111ZM17.8564 17.3492V15.3492C14.7383 15.3492 12.2018 12.8135 12.2018 9.67459H10.2018H8.20177C8.20177 15.0128 12.5194 19.3492 17.8564 19.3492V17.3492ZM10.2018 9.67459H12.2018C12.2018 6.5357 14.7383 4 17.8564 4V2V0C12.5194 0 8.20177 4.33636 8.20177 9.67459H10.2018ZM17.8564 2V4C20.9745 4 23.5111 6.5357 23.5111 9.67459H25.5111H27.5111C27.5111 4.33636 23.1935 0 17.8564 0V2ZM41.8074 55.0448L40.9573 56.8551C41.6534 57.182 42.1108 57.3805 42.5736 57.608C43.0065 57.8208 43.2623 57.9745 43.4346 58.1099C43.6387 58.2702 43.839 58.46 43.966 59.2609L45.9413 58.9476L47.9166 58.6343C47.6632 57.0362 47.0482 55.8623 45.9062 54.9648C44.9971 54.2504 43.7167 53.7318 42.6575 53.2344L41.8074 55.0448ZM41.8074 55.0448L42.6575 53.2344C41.786 52.8252 40.2856 52.4567 38.7785 52.138C37.1873 51.8016 35.3232 51.4695 33.5579 51.1776C31.7889 50.8851 30.1013 50.6301 28.857 50.4483C28.2345 50.3573 27.722 50.2846 27.3646 50.2345C27.1858 50.2094 27.0458 50.19 26.9502 50.1769C26.9024 50.1703 26.8657 50.1653 26.8407 50.1618C26.8282 50.1601 26.8187 50.1589 26.8122 50.158C26.809 50.1575 26.8065 50.1572 26.8048 50.157C26.8039 50.1568 26.8033 50.1567 26.8028 50.1567C26.8025 50.1567 26.8023 50.1566 26.8022 50.1566C26.8021 50.1566 26.8019 50.1566 26.5333 52.1385C26.2647 54.1203 26.2647 54.1203 26.2647 54.1203C26.2648 54.1203 26.2649 54.1204 26.2651 54.1204C26.2654 54.1204 26.2659 54.1205 26.2665 54.1206C26.2679 54.1208 26.2701 54.1211 26.273 54.1215C26.2788 54.1222 26.2876 54.1234 26.2994 54.1251C26.3229 54.1283 26.3582 54.1331 26.4045 54.1395C26.4972 54.1522 26.634 54.1712 26.8094 54.1958C27.1602 54.2449 27.6649 54.3166 28.2788 54.4063C29.5073 54.5858 31.1688 54.8369 32.9054 55.124C34.6457 55.4118 36.4437 55.7328 37.9511 56.0515C39.5426 56.388 40.5772 56.6766 40.9573 56.8551L41.8074 55.0448ZM24.8996 43.1837L26.857 42.7729L24.2901 30.5408L22.3327 30.9515L20.3753 31.3623L22.9422 43.5944L24.8996 43.1837ZM22.3327 30.9515L24.3059 30.6253C24.3762 31.0506 24.1384 31.0652 24.5119 30.6553C24.8018 30.3371 25.2673 30.0009 25.7886 29.788C26.3199 29.5711 26.7253 29.5543 26.9578 29.611C27.098 29.6452 27.3075 29.7242 27.5175 30.1769L29.3318 29.3353L31.1461 28.4937C30.4553 27.0045 29.2981 26.0644 27.9054 25.7248C26.605 25.4077 25.3112 25.6624 24.2766 26.0848C23.2319 26.5113 22.2648 27.1823 21.5549 27.9616C20.9285 28.6492 20.1237 29.8517 20.3595 31.2777L22.3327 30.9515ZM29.3318 29.3353L27.5175 30.1769C27.7865 30.7569 28.0251 32.0127 28.0841 33.9102C28.1406 35.7276 28.0279 37.8961 27.7649 40.1223C27.5021 42.3466 27.0943 44.5857 26.5762 46.5443C26.0495 48.5356 25.4422 50.1067 24.8354 51.0816L26.5333 52.1385L28.2313 53.1953C29.1484 51.7218 29.878 49.7038 30.4432 47.5672C31.0171 45.3979 31.4562 42.9705 31.7373 40.5916C32.0181 38.2146 32.1461 35.8432 32.0822 33.786C32.0207 31.8089 31.7778 29.8555 31.1461 28.4937L29.3318 29.3353ZM27.5095 70.6869V72.6869C26.9572 72.6869 26.5095 72.2392 26.5095 71.6869H28.5095H30.5095C30.5095 70.0301 29.1664 68.6869 27.5095 68.6869V70.6869ZM36.4574 69.0134L38.4487 68.8274C38.1356 65.4745 35.4888 62.8222 32.1372 62.501L31.9464 64.4918L31.7555 66.4827C33.1966 66.6208 34.3315 67.7585 34.466 69.1993L36.4574 69.0134Z" fill="#1A1A1A"/>
</svg>
