<svg width="57" height="84" viewBox="0 0 57 84" fill="none" xmlns="http://www.w3.org/2000/svg">
<path d="M45.2211 46.7011C43.8199 46.0849 43.7401 46.0499 42.0524 45.3092C40.3647 44.5684 40.8378 44.772 39.7056 44.2648M45.2211 46.7011C46.0173 47.9182 46.2118 49.2088 46.2118 49.2088C46.2118 49.2088 47.7487 69.3076 48.2635 75.2384C48.7783 81.1692 38.9976 82.2895 38.3357 76.2269C37.8948 72.1879 37.1307 64.1713 36.6698 59.2696C36.4444 56.8728 34.5524 54.979 32.1559 54.7509C26.4095 54.204 16.5589 53.2428 15.3032 52.965C13.5162 52.5696 8.50919 50.6352 8.22139 44.1347C7.9336 37.6342 23.9735 15.7985 27.8785 14.4147C31.7834 13.0308 34.6772 13.9789 36.284 15.9963C37.8907 18.0137 39.6594 35.1726 39.6594 35.1726C39.6594 35.1726 47.168 38.0845 51.7713 40.1808C56.3746 42.2771 52.6979 50.1973 48.1311 48.0226C47.3011 47.6274 46.3049 47.1799 45.2211 46.7011ZM45.2211 46.7011C43.4983 45.94 41.5544 45.0998 39.7056 44.2648M39.7056 44.2648C36.3188 42.7354 33.251 41.2234 32.4452 40.2467C31.9036 39.5903 31.4768 37.343 30.8958 34.9749M39.7056 44.2648C36.4984 43.7993 31.822 43.2078 27.0842 42.5807M23.444 42.0919C24.6456 42.2561 25.8669 42.4196 27.0842 42.5807M27.0842 42.5807C27.2765 38.1887 28.5628 36.7335 30.8958 34.9749M30.8958 34.9749C29.8438 30.6868 28.9374 25.3538 28.9374 25.3538M2 19.6206V60.9386M2 60.9386V81.2351M2 60.9386H27.6727C28.225 60.9386 28.6727 61.3863 28.6727 61.9386V81.2351M54.3995 9.36738C54.3995 13.4363 51.0866 16.7348 47 16.7348C42.9134 16.7348 39.6005 13.4363 39.6005 9.36738C39.6005 5.29849 42.9134 2 47 2C51.0866 2 54.3995 5.29849 54.3995 9.36738Z" stroke="#1A1A1A" stroke-width="4" stroke-linecap="round"/>
</svg>
