<svg width="85" height="85" viewBox="0 0 85 85" fill="none" xmlns="http://www.w3.org/2000/svg">
<path d="M82.25 68.9167V42.25C82.25 20.1586 64.3414 2.25 42.25 2.25C20.1586 2.25 2.25 20.1586 2.25 42.25V68.9167M13.3611 82.25C7.22461 82.25 2.25 77.2754 2.25 71.1389V62.25C2.25 56.1135 7.22461 51.1389 13.3611 51.1389C19.4976 51.1389 24.4722 56.1135 24.4722 62.25V71.1389C24.4722 77.2754 19.4976 82.25 13.3611 82.25ZM71.1389 82.25C65.0024 82.25 60.0278 77.2754 60.0278 71.1389V62.25C60.0278 56.1135 65.0024 51.1389 71.1389 51.1389C77.2754 51.1389 82.25 56.1135 82.25 62.25V71.1389C82.25 77.2754 77.2754 82.25 71.1389 82.25Z" stroke="#1A1A1A" stroke-width="4.5" stroke-linecap="round" stroke-linejoin="round"/>
</svg>
