<svg width="53" height="93" viewBox="0 0 53 93" fill="none" xmlns="http://www.w3.org/2000/svg">
<path d="M22.4584 19.6211C24.0193 18.9699 25.5717 18.9266 27.3636 19.3779C28.913 19.7683 30.2259 20.6447 31.1937 21.541C32.1429 22.4203 32.9302 23.4778 33.3119 24.4316C33.5718 25.0814 34.5118 27.5517 35.5863 30.0889C36.122 31.3538 36.6766 32.599 37.1771 33.6035C37.4276 34.1062 37.6532 34.5267 37.847 34.8486C37.9435 35.0088 38.0242 35.1326 38.0883 35.2217C38.1343 35.2857 38.1623 35.3187 38.1713 35.3291C38.2737 35.4313 38.6361 35.6877 39.4261 36.0645C40.1613 36.415 41.0921 36.7911 42.1595 37.1914C44.1696 37.9452 46.927 38.8738 49.0521 39.7002C52.3917 40.9994 53.2808 44.3988 52.3832 46.957C51.9281 48.2536 50.9919 49.4469 49.5961 50.1143C48.1762 50.793 46.4948 50.8262 44.7513 50.1924C42.0281 49.2021 38.4768 47.6708 35.64 46.4033C34.6274 45.9509 33.6993 45.5277 32.9232 45.1719C32.8146 45.7384 32.6963 46.3657 32.5785 47.0137C32.1503 49.3687 31.7817 51.7081 31.7689 52.6055C31.7783 52.6401 31.8034 52.7209 31.8607 52.8564C31.9703 53.1152 32.1515 53.4582 32.4164 53.8975C32.9504 54.7829 33.6984 55.8524 34.5853 57.1221C36.304 59.5823 38.4852 62.7095 39.807 65.8574C42.844 73.0901 43.5617 78.9063 44.5189 85.1279C44.8267 87.1292 44.4408 88.912 43.4818 90.2959C42.5347 91.6627 41.1231 92.5 39.639 92.7881C36.6239 93.3731 33.2416 91.6877 32.3929 87.7852C31.1119 81.8923 31.077 77.968 28.4506 72.5684C27.5377 70.6918 25.9984 68.3982 24.6322 66.5156C24.6287 66.5108 24.624 66.5058 24.6205 66.501C24.5683 66.6905 24.5173 66.884 24.4633 67.0781C23.8163 69.4012 22.9913 72.2197 22.4359 73.4697C22.1275 74.1637 21.4294 75.3405 20.6107 76.6533C19.7616 78.0149 18.696 79.6583 17.5765 81.3525C15.338 84.7405 12.8558 88.373 11.3959 90.4414C9.16245 93.6057 5.33302 93.4252 2.92419 91.874C1.68556 91.0762 0.63811 89.8334 0.206421 88.2568C-0.236826 86.6372 0.0257708 84.8634 1.07166 83.1738C2.67246 80.5878 4.81885 77.5226 6.64197 74.8926C7.56229 73.5649 8.39925 72.3489 9.06482 71.334C9.7555 70.2808 10.1787 69.5657 10.3441 69.1934C10.5175 68.8031 10.8438 67.7988 11.2582 66.3408C11.6574 64.9361 12.1035 63.2398 12.5219 61.5664C12.9401 59.8934 13.3269 58.2567 13.6078 56.9707C13.7485 56.3262 13.8597 55.7811 13.9349 55.3701C13.9857 55.0924 14.0083 54.9311 14.0189 54.8564C14.0113 54.8364 14.0021 54.8076 13.9857 54.7715C13.8818 54.5429 13.7973 54.4174 13.5638 53.9717C13.1637 53.2076 12.6437 52.0416 12.8392 50.4756C12.9584 49.5215 13.5444 46.2052 14.1254 42.9854C13.6497 44.8275 13.0984 47.1601 12.392 49.3975C11.8723 51.0433 10.8115 52.2344 9.43201 52.8281C8.09587 53.403 6.63741 53.3417 5.40076 52.8564C4.16015 52.3694 3.04552 51.4187 2.42029 50.084C1.78042 48.7175 1.72428 47.0999 2.34607 45.4414C3.21717 43.1179 3.90426 40.5313 4.63611 38.0713C4.99321 36.8709 5.36312 35.6993 5.76111 34.6748C6.14883 33.6768 6.61624 32.6756 7.21912 31.9004C7.76179 31.2026 8.66888 30.3279 9.63513 29.46C10.6343 28.5625 11.81 27.5733 12.9701 26.627C15.2149 24.7957 17.4732 23.0681 18.4037 22.3984C19.7707 21.2408 21.0583 20.2053 22.4584 19.6211ZM26.3861 23.2568C25.2622 22.9738 24.6149 23.0554 23.9984 23.3125C23.3395 23.5875 22.6083 24.1043 21.4808 25.0381L19.4418 36.1406V36.1445L19.4408 36.1465C19.4405 36.148 19.4403 36.1506 19.4398 36.1533C19.4387 36.1595 19.4371 36.1688 19.4349 36.1807C19.4304 36.2053 19.4232 36.2423 19.4144 36.29C19.3968 36.3856 19.3704 36.5267 19.3373 36.7061C19.271 37.0652 19.1766 37.5809 19.0619 38.2051C18.8323 39.4543 18.5233 41.1397 18.2074 42.8848C17.5675 46.4191 16.9196 50.0781 16.808 50.9717C16.7629 51.3335 16.8454 51.6143 17.1078 52.1152C17.2056 52.302 17.4678 52.7651 17.6273 53.1162C17.8154 53.5302 18.0285 54.1155 18.0287 54.8203C18.0287 55.1869 17.9426 55.6911 17.8695 56.0908C17.7828 56.5646 17.6613 57.1577 17.516 57.8232C17.2244 59.1583 16.828 60.8362 16.4027 62.5371C15.9775 64.238 15.5191 65.9771 15.1049 67.4346C14.7059 68.8383 14.3089 70.124 14.0004 70.8184C13.6839 71.5306 13.082 72.5029 12.4095 73.5283C11.7118 74.5922 10.8465 75.8474 9.92908 77.1709C8.07653 79.8433 6.00534 82.8039 4.47302 85.2793C3.9524 86.1204 3.94326 86.7571 4.06482 87.2012C4.19823 87.688 4.55164 88.1638 5.09021 88.5107C6.23649 89.2488 7.4698 89.0677 8.1283 88.1348C9.56047 86.1057 12.0193 82.5078 14.2396 79.1475C15.3497 77.4674 16.3932 75.8559 17.2162 74.5361C18.0695 73.1678 18.607 72.2355 18.7806 71.8447C19.1891 70.9254 19.9311 68.4416 20.6097 66.0049C20.9382 64.8254 21.2374 63.711 21.4545 62.8916C21.4896 62.759 21.5215 62.6337 21.5521 62.5176L20.4437 61.1328C19.7536 60.2705 19.893 59.0116 20.7552 58.3213C21.6175 57.6312 22.8765 57.7707 23.5668 58.6328L25.2982 60.7959L25.309 60.8096C25.3185 60.8214 25.3325 60.8386 25.35 60.8604C25.3856 60.9046 25.4376 60.9693 25.5033 61.0518C25.6352 61.2173 25.8254 61.4568 26.058 61.7559C26.5231 62.3538 27.1645 63.1945 27.8695 64.166C29.2603 66.0825 30.9742 68.6105 32.0482 70.8184C34.954 76.7921 35.172 81.7414 36.3011 86.9355C36.658 88.5758 37.8555 89.0596 38.8773 88.8613C39.4113 88.7576 39.8832 88.4655 40.1937 88.0176C40.4925 87.5864 40.7397 86.8677 40.5658 85.7363C39.5948 79.4249 38.9323 74.1075 36.1185 67.4062C34.9904 64.7197 33.0732 61.9405 31.307 59.4121C30.4517 58.1878 29.6103 56.9912 28.9906 55.9639C28.679 55.4472 28.3913 54.9218 28.1771 54.416C27.9755 53.9397 27.768 53.3173 27.7679 52.6514C27.768 51.3429 28.2352 48.5407 28.6429 46.2979C28.8561 45.1255 29.0695 44.0232 29.2289 43.2148C29.278 42.9657 29.3222 42.744 29.3597 42.5566L24.1146 31.8379C23.6292 30.8458 24.0395 29.6476 25.0316 29.1621C26.0237 28.6768 27.2219 29.088 27.7074 30.0801L32.9408 40.7744C33.1569 40.8751 33.4239 40.9998 33.7328 41.1426C34.6233 41.5541 35.8658 42.1228 37.2719 42.751C40.099 44.0142 43.5384 45.4957 46.1176 46.4336C47.0244 46.7632 47.5733 46.6469 47.8705 46.5049C48.1915 46.3513 48.4612 46.0529 48.6088 45.6328C48.9161 44.7568 48.5997 43.8171 47.6019 43.4287C45.3889 42.5681 43.0834 41.8096 40.7552 40.9365C39.654 40.5236 38.5961 40.0999 37.7045 39.6748C36.8687 39.2763 35.9642 38.7791 35.3431 38.1582C34.9835 37.7986 34.6704 37.3273 34.4203 36.9121C34.1513 36.4653 33.8724 35.9423 33.5961 35.3877C33.0422 34.276 32.4515 32.9441 31.9027 31.6484C30.8088 29.0655 29.8211 26.4746 29.598 25.917C29.4974 25.6657 29.1276 25.0801 28.475 24.4756C27.8407 23.8881 27.1036 23.4377 26.3861 23.2568ZM15.4984 29.7266C14.3646 30.6515 13.2422 31.5964 12.308 32.4355C11.3411 33.304 10.6781 33.9697 10.3773 34.3564C10.1368 34.6657 9.83622 35.2309 9.48962 36.123C9.15322 36.989 8.82106 38.0322 8.47009 39.2119C7.78585 41.5119 7.02736 44.3486 6.09119 46.8457C5.80937 47.5974 5.90374 48.0896 6.04334 48.3877C6.19777 48.7171 6.49183 48.9872 6.86267 49.1328C7.23732 49.2797 7.59452 49.2645 7.85095 49.1543C8.0641 49.0625 8.37433 48.8365 8.57751 48.1934C9.28049 45.9668 9.79543 43.7246 10.3275 41.6904C10.5861 40.7018 10.8531 39.7501 11.1439 38.9365C11.4187 38.1679 11.7848 37.3147 12.3226 36.6689C13.1999 35.6161 14.4117 34.9225 15.2533 34.5186C15.4126 34.4421 15.5668 34.3732 15.7113 34.3105L16.7357 28.7305C16.3304 29.0541 15.9141 29.3874 15.4984 29.7266ZM31.972 0C37.2032 0 41.4446 4.24059 41.4447 9.47168C41.4444 14.7027 37.2031 18.9443 31.972 18.9443C26.7411 18.9442 22.5006 14.7026 22.5004 9.47168C22.5005 4.24068 26.741 0.000141223 31.972 0ZM31.972 4C28.9502 4.00014 26.5005 6.44982 26.5004 9.47168C26.5006 12.4934 28.9503 14.9442 31.972 14.9443C34.994 14.9443 37.4444 12.4935 37.4447 9.47168C37.4446 6.44973 34.994 4 31.972 4Z" fill="#1A1A1A"/>
</svg>
