<svg width="80" height="89" viewBox="0 0 80 89" fill="none" xmlns="http://www.w3.org/2000/svg">
<path d="M58.4717 0C60.0815 0 61.5709 0.722123 62.6289 1.91211C63.6799 3.09453 64.2372 4.65291 64.2373 6.23535V8.4707H67.8818C70.9894 8.4707 73.9152 9.86176 76.0322 12.2432C78.1424 14.6171 79.2939 17.792 79.2939 21.0596C79.2939 24.327 78.1422 27.5011 76.0322 29.875C73.9152 32.2567 70.9896 33.6484 67.8818 33.6484H64.1709C63.7465 40.1235 61.2707 46.2723 57.1152 50.9473C54.8314 53.5165 52.1284 55.537 49.1758 56.9199V62.4863L49.1924 62.916C49.2593 63.913 49.5242 64.8744 49.96 65.7266C50.3956 66.5782 50.984 67.2866 51.666 67.8135L51.9639 68.0283L52.1309 68.1523C54.7284 70.3168 56.823 73.1169 58.2637 76.3164C59.4476 78.946 60.1651 81.7946 60.3916 84.7061H69.7637C70.8681 84.7061 71.7635 85.6017 71.7637 86.7061C71.7636 87.8105 70.8682 88.7061 69.7637 88.7061H9.5293C8.42497 88.7058 7.52939 87.8104 7.5293 86.7061C7.52951 85.6018 8.42505 84.7063 9.5293 84.7061H18.9023C19.1288 81.7946 19.8464 78.946 21.0303 76.3164C22.4709 73.1168 24.5655 70.3168 27.1631 68.1523L27.3291 68.0283C28.138 67.486 28.836 66.7002 29.334 65.7266C29.8322 64.7525 30.1069 63.636 30.1182 62.4863V56.9199C27.1662 55.537 24.4632 53.5162 22.1797 50.9473C18.0244 46.2723 15.5484 40.1233 15.124 33.6484H11.4121C8.30446 33.6483 5.37867 32.2566 3.26172 29.875C1.15198 27.5011 4.39146e-05 24.3268 0 21.0596C9.44852e-05 17.7921 1.15159 14.6171 3.26172 12.2432C5.37867 9.86159 8.30447 8.47083 11.4121 8.4707H15.0586V6.23535C15.0587 4.65286 15.616 3.09454 16.667 1.91211C17.7248 0.722096 19.2135 0.000193133 20.8232 0H58.4717ZM34.1182 62.5254C34.101 64.2777 33.6839 66.0065 32.8955 67.5479C32.1281 69.048 31.0249 70.333 29.6699 71.2705C27.5869 73.0206 25.8724 75.3055 24.6777 77.959C23.7289 80.0665 23.1338 82.3547 22.917 84.7061H56.377C56.1601 82.3547 55.565 80.0665 54.6162 77.959C53.4218 75.3063 51.7072 73.0223 49.625 71.2725C48.2695 70.3349 47.166 69.0485 46.3984 67.5479C45.6102 66.0065 45.193 64.2776 45.1758 62.5254V58.3594C43.3804 58.8208 41.527 59.0615 39.6475 59.0615C37.7674 59.0615 35.9139 58.8201 34.1182 58.3584V62.5254ZM20.8232 4C20.4365 4.00019 20.0102 4.1712 19.6562 4.56934C19.2954 4.97528 19.0587 5.5716 19.0586 6.23535V10.4521C19.0586 10.4582 19.0595 10.4647 19.0596 10.4707C19.0596 10.4768 19.0587 10.4832 19.0586 10.4893V31.6484C19.0586 37.9288 21.279 43.9115 25.1699 48.2891C29.0541 52.6588 34.2683 55.0613 39.6475 55.0615C45.0269 55.0615 50.2416 52.659 54.126 48.2891C58.0077 43.9219 60.2258 37.9574 60.2363 31.6934C60.236 31.6786 60.2344 31.6633 60.2344 31.6484C60.2344 31.6297 60.2368 31.6104 60.2373 31.5918V10.5264C60.2368 10.508 60.2344 10.4892 60.2344 10.4707C60.2344 10.4522 60.2368 10.4334 60.2373 10.415V6.23535C60.2372 5.5717 60.0004 4.97527 59.6396 4.56934C59.2856 4.17126 58.8585 4 58.4717 4H20.8232ZM37.3467 16.4893C38.1909 14.4656 41.1028 14.4659 41.9473 16.4893L42.0244 16.6992L43.6953 21.8398H49.1006C51.5224 21.8398 52.5296 24.9388 50.5703 26.3623L46.1973 29.54L47.8672 34.6816C48.6153 36.9848 45.9797 38.8999 44.0205 37.4766L39.6465 34.2979L35.2734 37.4766C33.3143 38.8995 30.6788 36.9846 31.4268 34.6816L33.0957 29.54L28.7236 26.3623C26.7653 24.9386 27.772 21.8401 30.1934 21.8398H35.5986L37.2695 16.6992L37.3467 16.4893ZM38.3398 23.1123C38.0052 24.1424 37.045 24.8398 35.9619 24.8398H31.7324L35.1543 27.3262C36.0305 27.9627 36.3971 29.0921 36.0625 30.1221L34.7559 34.1436L38.1777 31.6582L38.3457 31.5469C39.201 31.0248 40.2948 31.0618 41.1162 31.6582L44.5381 34.1436L43.2314 30.1221C42.897 29.0921 43.2636 27.9627 44.1396 27.3262L47.5625 24.8398H43.332C42.2491 24.8397 41.2888 24.1423 40.9541 23.1123L39.6465 19.0889L38.3398 23.1123ZM11.4121 12.4707C9.52771 12.4708 7.66499 13.3109 6.25195 14.9004C4.83203 16.4978 4.00009 18.7108 4 21.0596C4.00004 23.4082 4.83221 25.6203 6.25195 27.2178C7.66503 28.8075 9.52757 29.6483 11.4121 29.6484H15.0586V12.4707H11.4121ZM64.2373 29.6484H67.8818C69.7665 29.6484 71.6298 28.8076 73.043 27.2178C74.4627 25.6203 75.2939 23.4083 75.2939 21.0596C75.2939 18.7108 74.4629 16.4978 73.043 14.9004C71.6298 13.3108 69.7664 12.4707 67.8818 12.4707H64.2373V29.6484Z" fill="#1A1A1A"/>
</svg>
