<svg width="83" height="44" viewBox="0 0 83 44" fill="none" xmlns="http://www.w3.org/2000/svg">
<path d="M41.1672 0C49.7838 4.78864e-05 58.238 1.86515 65.4621 5.39258C72.4571 8.80826 78.0562 13.6671 81.5031 19.458L81.8303 20.0215L81.8713 20.0986C82.4876 21.31 82.4876 22.69 81.8713 23.9014C81.8581 23.9273 81.8446 23.9532 81.8303 23.9785C78.4163 30.018 72.6829 35.0815 65.4621 38.6074C58.238 42.1349 49.7839 44 41.1672 44C32.5505 43.9999 24.0963 42.1349 16.8723 38.6074C9.65164 35.0815 3.91801 30.0178 0.504086 23.9785C0.489787 23.9532 0.475271 23.9273 0.462094 23.9014C-0.153956 22.6901 -0.154107 21.3098 0.462094 20.0986L0.504086 20.0215C3.91805 13.9821 9.65154 8.91852 16.8723 5.39258C24.0963 1.86513 32.5505 6.96319e-05 41.1672 0ZM41.1672 4C33.1083 4.00007 25.2612 5.7479 18.6271 8.9873C12.0137 12.2167 6.96729 16.7492 4.01873 21.9336C4.0019 21.9721 4.00023 21.9931 4.00018 22C4.00018 22.0065 4.00217 22.0271 4.01873 22.0654C6.96719 27.25 12.0135 31.7831 18.6271 35.0127C25.2612 38.2521 33.1083 39.9999 41.1672 40C49.226 40 57.0732 38.252 63.7072 35.0127C70.3195 31.7838 75.364 27.2516 78.3127 22.0684C78.3308 22.0277 78.3332 22.0067 78.3332 22C78.3331 21.9929 78.3309 21.9713 78.3127 21.9307C75.3639 16.7479 70.319 12.2159 63.7072 8.9873C57.0732 5.74803 49.2259 4.00005 41.1672 4ZM41.1672 9.58398C48.0246 9.58416 53.5832 15.1436 53.5832 22.001C53.5828 28.8581 48.0243 34.4168 41.1672 34.417C34.3101 34.4167 28.7505 28.8581 28.7502 22.001C28.7502 15.1436 34.3099 9.58424 41.1672 9.58398ZM41.1672 13.584C36.519 13.5842 32.7502 17.3527 32.7502 22.001C32.7505 26.6489 36.5192 30.4167 41.1672 30.417C45.8152 30.4168 49.5828 26.649 49.5832 22.001C49.5832 17.3527 45.8154 13.5842 41.1672 13.584Z" fill="#1A1A1A"/>
</svg>
