<svg width="66" height="90" viewBox="0 0 66 90" fill="none" xmlns="http://www.w3.org/2000/svg">
<path d="M59.8498 0C62.9199 0.000130859 64.9722 2.30283 65.2092 4.8457C65.4581 7.52235 63.7601 10.1201 60.4142 11.1045C58.0175 11.8095 54.005 12.9936 49.9582 14.957C45.9337 16.9097 42.0865 19.5359 39.7424 23.0186C41.5372 24.423 42.664 25.6954 44.0168 27.6406C44.0206 27.6462 44.0255 27.6524 44.0304 27.6572C47.4819 31.0386 50.3432 35.163 52.1623 38.8604C53.0709 40.7073 53.7508 42.5094 54.0978 44.1074C54.4234 45.607 54.5455 47.3224 53.8566 48.7012C53.3761 49.6623 52.4254 50.2837 51.7092 50.6758C50.8968 51.1204 49.8996 51.522 48.8351 51.8818C46.6958 52.605 44.0352 53.2425 41.4425 53.7383C38.8446 54.235 36.2461 54.6024 34.214 54.7686C33.523 54.825 32.8717 54.858 32.2941 54.8643C35.297 61.2468 42.0567 75.6303 44.2756 80.5127C45.1776 82.4976 45.2824 84.4479 44.6349 86.124C43.9941 87.7821 42.6917 88.9692 41.1759 89.5615C38.0683 90.7755 34.1823 89.5021 32.384 85.4443C30.4345 81.0455 24.5145 69.3728 21.2804 63.043L21.2795 63.042H21.2785V63.0439C19.039 69.3691 14.8778 80.9625 12.8869 85.4453C12.0098 87.42 10.6182 88.7678 8.94841 89.4121C7.30478 90.0461 5.56184 89.932 4.0822 89.3096C1.10121 88.0554 -1.02049 84.609 0.510909 80.623C1.61479 77.7499 4.83538 69.5093 7.77653 61.9961C9.24792 58.2374 10.651 54.6574 11.6857 52.0176C12.203 50.6978 12.6289 49.6124 12.925 48.8574C13.0728 48.4803 13.1881 48.1849 13.2668 47.9844C13.306 47.8843 13.3364 47.8065 13.3566 47.7549C13.3665 47.7296 13.375 47.7102 13.38 47.6973C13.3825 47.6909 13.3846 47.6849 13.3859 47.6816C13.3863 47.6807 13.3866 47.6793 13.3869 47.6787V47.6777L13.3879 47.6768L13.4201 47.5938L13.4601 47.5127L26.9308 20.5674L26.9787 20.4717L27.0373 20.3809C38.28 2.88755 55.4834 0.000142911 59.8498 0ZM59.8498 4C56.4384 4.00016 40.7657 6.4946 30.4562 22.459L17.0763 49.2236C17.0562 49.2749 17.0285 49.3496 16.9914 49.4443C16.9128 49.6448 16.7965 49.9402 16.6486 50.3174C16.3526 51.0722 15.9275 52.1579 15.4103 53.4775C14.3757 56.1171 12.9722 59.6962 11.5011 63.4541C8.55752 70.9736 5.34349 79.1992 4.24528 82.0576C3.57512 83.8019 4.41411 85.1089 5.63396 85.6221C6.25463 85.8831 6.9224 85.9069 7.50896 85.6807C8.06911 85.4645 8.72818 84.9534 9.23064 83.8223C11.1423 79.518 15.2419 68.1066 17.507 61.709C18.6786 58.4015 23.2419 58.0914 24.842 61.2227C28.0492 67.5 34.0352 79.2969 36.0412 83.8232C37.0045 85.9968 38.6783 86.2433 39.7209 85.8359C40.2797 85.6174 40.7002 85.2078 40.9035 84.6816C41.0998 84.1731 41.1704 83.3485 40.634 82.168C38.1349 76.669 29.8123 58.979 27.6984 54.4893C27.0872 53.1908 27.2233 51.6785 28.0334 50.5107L28.1027 50.4102C28.1587 50.3137 28.2215 50.2222 28.2912 50.1377L36.3498 38.5225L36.4728 38.3555C37.7403 36.7236 40.251 36.1877 42.0138 37.7158L42.1877 37.875L42.4728 38.1602C43.1378 38.8405 43.7788 39.6217 44.1925 40.4395C44.6372 41.3184 45.1021 42.8709 44.0334 44.2451C43.6436 44.746 43.1199 45.0529 42.7677 45.2324C42.37 45.4352 41.9248 45.6053 41.4884 45.749C40.6124 46.0375 39.5822 46.2806 38.6154 46.4746C37.6385 46.6706 36.6757 46.8263 35.9152 46.9336C35.717 46.9616 35.5186 46.9879 35.3293 47.0117L32.6623 50.8555C33.0188 50.8425 33.429 50.8188 33.8879 50.7812C35.7471 50.6292 38.2011 50.2858 40.6916 49.8096C43.1871 49.3324 45.6525 48.7345 47.5539 48.0918C48.5096 47.7687 49.2632 47.4544 49.7883 47.167C50.0994 46.9967 50.248 46.8785 50.3058 46.8311C50.3626 46.6167 50.425 46.0446 50.1886 44.9561C49.9311 43.7702 49.3888 42.2834 48.5734 40.626C46.9438 37.3137 44.3436 33.5636 41.2316 30.5146C41.0477 30.3344 40.8807 30.1363 40.7336 29.9248C39.5589 28.2356 38.6949 27.2777 37.2765 26.168C35.839 25.0428 35.0784 22.8257 36.3127 20.9502C39.2233 16.5278 43.8646 13.4678 48.2121 11.3584C52.5874 9.23558 56.8857 7.97252 59.2853 7.2666C60.2009 6.99719 60.6828 6.58877 60.9279 6.25293C61.1753 5.91351 61.2566 5.54917 61.2258 5.2168C61.1628 4.54188 60.6702 4.00012 59.8498 4ZM38.5246 42.4043C39.1613 42.2623 39.7529 42.1098 40.2375 41.9502C40.2964 41.9308 40.3516 41.9082 40.4045 41.8896C40.2111 41.6129 39.9317 41.2796 39.5636 40.9072L38.5246 42.4043ZM53.7502 14.5C58.5827 14.5 62.5002 18.4175 62.5002 23.25C62.5002 28.0825 58.5827 32 53.7502 32C48.9177 32 45.0002 28.0825 45.0002 23.25C45.0002 18.4175 48.9177 14.5 53.7502 14.5ZM53.7502 18.5C51.1268 18.5 49.0002 20.6266 49.0002 23.25C49.0002 25.8734 51.1268 28 53.7502 28C56.3735 28 58.5002 25.8734 58.5002 23.25C58.5002 20.6266 56.3735 18.5 53.7502 18.5Z" fill="#1A1A1A"/>
</svg>
